<svg xmlns="http://www.w3.org/2000/svg" width="25" height="20" viewBox="0 0 25 20">
  <g id="noun-home-1560057" transform="translate(-126.004 -100.797)">
    <path id="Path_51" data-name="Path 51" d="M138.487,100.8a.671.671,0,0,0-.371.127L126.241,110.3a.647.647,0,0,0-.107.889.657.657,0,0,0,.889.1l11.484-9.063,11.484,9.063a.629.629,0,0,0,.781-.986L138.9,100.924a.714.714,0,0,0-.41-.127Zm-7.793,8.408-1.25.986v9.98h0a.625.625,0,0,0,.625.625h5.938a.625.625,0,0,0,.625-.625v-3.75a1.875,1.875,0,1,1,3.75,0v3.75h0a.625.625,0,0,0,.625.625h5.937a.625.625,0,0,0,.625-.625v-9.98l-1.25-.986v10.342h-4.688v-3.125a3.125,3.125,0,0,0-6.25,0v3.125h-4.687V109.206Z" fill="#fff"/>
  </g>
</svg>
